<svg width="32" height="32" viewBox="0 0 32 32" fill="none" xmlns="http://www.w3.org/2000/svg">
<path d="M8.07879 9.82957H24.2027C26.2182 9.82957 27.8978 11.8451 28.2337 13.8606L30.2492 25.9535C30.5853 27.97 28.2337 29.9845 26.2182 29.9845H6.06329C4.0478 29.9845 1.69622 27.97 2.0323 25.9535L4.0478 13.8606C4.38375 11.8451 6.06329 9.82957 8.07879 9.82957Z" stroke="white" stroke-width="2.01549" stroke-linecap="round" stroke-linejoin="round"/>
<path d="M10.0942 13.8605V7.79063" stroke="white" stroke-width="2.01549" stroke-linecap="round" stroke-linejoin="round"/>
<path d="M22.1873 7.81406V13.8605" stroke="white" stroke-width="2.01549" stroke-linecap="round" stroke-linejoin="round"/>
<path d="M2.42139 23.8521H29.8598" stroke="white" stroke-width="2.01549" stroke-linecap="round" stroke-linejoin="round"/>
<path d="M22.1872 7.81408C22.1872 5.79858 21.0157 3.65044 19.1522 2.57454C18.2366 2.04591 17.198 1.76761 16.1407 1.76761C15.0835 1.76761 14.0448 2.04591 13.1292 2.57454C11.2656 3.65044 10.0942 5.79858 10.0942 7.81408" stroke="white" stroke-width="2.01549" stroke-linecap="round" stroke-linejoin="round"/>
</svg>
