<svg width="12" height="12" viewBox="0 0 12 12" fill="none" xmlns="http://www.w3.org/2000/svg">
<g clip-path="url(#clip0_906_610)">
<path d="M4.01549 3.83925L5.65349 0.594C5.68495 0.528715 5.73411 0.473575 5.79536 0.434857C5.85662 0.396139 5.92752 0.3754 5.99999 0.375C6.13724 0.375 6.27449 0.44775 6.34874 0.594L7.98674 3.83925L11.6602 4.36125C11.7518 4.37564 11.8356 4.42118 11.8975 4.49018C11.9594 4.55918 11.9956 4.64741 12 4.74C12.0052 4.80164 11.9965 4.86367 11.9744 4.92145C11.9523 4.97924 11.9175 5.0313 11.8725 5.07375L9.23024 7.59075L9.85274 11.1382C9.91124 11.4705 9.58274 11.7307 9.29324 11.5822L5.99999 9.89025L2.70824 11.5822C2.67381 11.6001 2.6369 11.6128 2.59874 11.6198C2.34224 11.6648 2.09774 11.4292 2.14874 11.1382L2.77124 7.59075L0.129741 5.07375C0.0886748 5.0349 0.0560332 4.98802 0.0338421 4.93603C0.0116509 4.88403 0.000383974 4.82803 0.000740632 4.7715C0.000779642 4.69158 0.0228366 4.61321 0.0644906 4.545C0.0940396 4.49555 0.134315 4.45337 0.182344 4.42157C0.230373 4.38976 0.284931 4.36915 0.341991 4.36125L4.01549 3.83925V3.83925ZM5.99999 9.02025C6.06053 9.02 6.12023 9.03441 6.17399 9.06225L8.93849 10.4828L8.41799 7.515C8.4057 7.44675 8.41036 7.37652 8.43154 7.31048C8.45272 7.24445 8.48979 7.18462 8.53949 7.13625L10.7197 5.05875L7.68074 4.62675C7.61781 4.61725 7.55812 4.59263 7.50679 4.55501C7.45546 4.51739 7.41401 4.46789 7.38599 4.41075L6.00074 1.66725L5.99999 1.6695V9.0195V9.02025Z" fill="black"/>
</g>
<defs>
<clipPath id="clip0_906_610">
<rect width="12" height="12" fill="white"/>
</clipPath>
</defs>
</svg>
