<svg width="24" height="25" viewBox="0 0 24 25" fill="none" xmlns="http://www.w3.org/2000/svg">
<path d="M14.25 16.4062H9.75C9.15326 16.4063 8.58097 16.6532 8.15901 17.0927C7.73705 17.5323 7.5 18.1284 7.5 18.75V20.3125H9V18.75C9 18.5428 9.07902 18.3441 9.21967 18.1976C9.36032 18.0511 9.55109 17.9688 9.75 17.9688H14.25C14.4489 17.9688 14.6397 18.0511 14.7803 18.1976C14.921 18.3441 15 18.5428 15 18.75V20.3125H16.5V18.75C16.5 18.1284 16.2629 17.5323 15.841 17.0927C15.419 16.6532 14.8467 16.4063 14.25 16.4062Z" fill="black"/>
<path d="M12 15.625C12.5933 15.625 13.1734 15.4417 13.6667 15.0983C14.1601 14.755 14.5446 14.2669 14.7716 13.6959C14.9987 13.1249 15.0581 12.4965 14.9424 11.8903C14.8266 11.2842 14.5409 10.7273 14.1213 10.2903C13.7018 9.85325 13.1672 9.55563 12.5853 9.43505C12.0033 9.31447 11.4001 9.37635 10.8519 9.61288C10.3038 9.8494 9.83524 10.2499 9.50559 10.7638C9.17595 11.2777 9 11.8819 9 12.5C9 13.3288 9.31607 14.1237 9.87868 14.7097C10.4413 15.2958 11.2044 15.625 12 15.625ZM12 10.9375C12.2967 10.9375 12.5867 11.0291 12.8334 11.2008C13.08 11.3725 13.2723 11.6165 13.3858 11.9021C13.4994 12.1876 13.5291 12.5017 13.4712 12.8048C13.4133 13.1079 13.2704 13.3863 13.0607 13.6049C12.8509 13.8234 12.5836 13.9722 12.2926 14.0325C12.0017 14.0928 11.7001 14.0618 11.426 13.9436C11.1519 13.8253 10.9176 13.625 10.7528 13.3681C10.588 13.1111 10.5 12.809 10.5 12.5C10.5 12.0856 10.658 11.6882 10.9393 11.3951C11.2206 11.1021 11.6022 10.9375 12 10.9375Z" fill="black"/>
<path d="M18.75 3.90625H16.5V3.125C16.5 2.7106 16.342 2.31317 16.0607 2.02015C15.7794 1.72712 15.3978 1.5625 15 1.5625H9C8.60218 1.5625 8.22064 1.72712 7.93934 2.02015C7.65804 2.31317 7.5 2.7106 7.5 3.125V3.90625H5.25C4.85218 3.90625 4.47064 4.07087 4.18934 4.3639C3.90804 4.65692 3.75 5.05435 3.75 5.46875V21.875C3.75 22.2894 3.90804 22.6868 4.18934 22.9799C4.47064 23.2729 4.85218 23.4375 5.25 23.4375H18.75C19.1478 23.4375 19.5294 23.2729 19.8107 22.9799C20.092 22.6868 20.25 22.2894 20.25 21.875V5.46875C20.25 5.05435 20.092 4.65692 19.8107 4.3639C19.5294 4.07087 19.1478 3.90625 18.75 3.90625ZM9 3.125H15V6.25H9V3.125ZM18.75 21.875H5.25V5.46875H7.5V7.8125H16.5V5.46875H18.75V21.875Z" fill="black"/>
</svg>
