<svg width="23" height="23" viewBox="0 0 23 23" fill="none" xmlns="http://www.w3.org/2000/svg">
<path d="M1.79688 2.15625H21.2031C21.489 2.15658 21.763 2.27028 21.9651 2.47239C22.1672 2.67451 22.2809 2.94854 22.2812 3.23438V19.7656C22.2809 20.0515 22.1672 20.3255 21.9651 20.5276C21.763 20.7297 21.489 20.8434 21.2031 20.8438H17.25V18.2014C17.2499 18.0412 17.2071 17.884 17.1258 17.7459C17.0446 17.6079 16.928 17.4941 16.788 17.4162L12.6562 15.1197L14.0156 11.721V8.98438C14.0156 8.31719 13.7506 7.67733 13.2788 7.20556C12.807 6.73379 12.1672 6.46875 11.5 6.46875C10.8328 6.46875 10.193 6.73379 9.72118 7.20556C9.24941 7.67733 8.98438 8.31719 8.98438 8.98438V11.721L10.3438 15.1195L6.21198 17.4162C6.07201 17.4941 5.95539 17.6079 5.87417 17.7459C5.79295 17.884 5.75008 18.0412 5.75 18.2014V20.8438H1.79688C1.51104 20.8434 1.23701 20.7297 1.03489 20.5276C0.832777 20.3255 0.719084 20.0515 0.71875 19.7656V3.23438C0.719084 2.94854 0.832777 2.67451 1.03489 2.47239C1.23701 2.27028 1.51104 2.15658 1.79688 2.15625ZM2.15625 19.4062H4.3125V18.2014C4.31263 17.7849 4.42405 17.376 4.63522 17.017C4.8464 16.6581 5.14966 16.362 5.51362 16.1596L8.53897 14.4783L7.54688 11.9978V8.98438C7.54688 7.93594 7.96336 6.93045 8.70472 6.18909C9.44607 5.44774 10.4516 5.03125 11.5 5.03125C12.5484 5.03125 13.5539 5.44774 14.2953 6.18909C15.0366 6.93045 15.4531 7.93594 15.4531 8.98438V11.9978L14.461 14.4783L17.4864 16.1598C17.8503 16.3623 18.1535 16.6582 18.3647 17.0172C18.5759 17.3761 18.6873 17.7849 18.6875 18.2014V19.4062H20.8438V3.59375H2.15625V19.4062Z" fill="black"/>
</svg>
