<svg width="24" height="24" viewBox="0 0 24 24" fill="none" xmlns="http://www.w3.org/2000/svg">
<path d="M21.3145 14.65C22.2002 13.261 22.6694 11.6473 22.6665 10C22.6665 5.21333 18.7865 1.33333 13.9999 1.33333C12.2885 1.33333 10.6932 1.82933 9.34987 2.68467C8.45587 2.73481 7.571 2.89102 6.71387 3.15C7.36539 2.45737 8.11195 1.86075 8.9312 1.378C10.4571 0.478839 12.1954 0.00314305 13.9665 0H13.9999C19.5225 0 23.9999 4.47733 23.9999 10C23.9999 10.09 23.9985 10.1793 23.9965 10.2687L23.9952 10.3007C23.9475 11.9805 23.475 13.6209 22.6219 15.0687C22.1391 15.8879 21.5425 16.6345 20.8499 17.286C21.1039 16.444 21.2632 15.5613 21.3145 14.65Z" fill="black"/>
<path fill-rule="evenodd" clip-rule="evenodd" d="M13.1817 11.1114C12.9978 10.5914 12.6572 10.1412 12.2069 9.82276C11.7565 9.50435 11.2185 9.33336 10.667 9.33335V8.66669H9.33366V9.33335C8.62641 9.33335 7.94814 9.61431 7.44804 10.1144C6.94794 10.6145 6.66699 11.2928 6.66699 12C6.66699 12.7073 6.94794 13.3855 7.44804 13.8856C7.94814 14.3857 8.62641 14.6667 9.33366 14.6667V17.3334C8.75366 17.3334 8.25966 16.9634 8.07566 16.4447C8.04836 16.3598 8.00432 16.2813 7.94615 16.2138C7.88797 16.1462 7.81684 16.091 7.73697 16.0515C7.65709 16.0119 7.57009 15.9888 7.48111 15.9834C7.39213 15.978 7.30298 15.9906 7.21894 16.0203C7.13489 16.05 7.05765 16.0962 6.99179 16.1563C6.92593 16.2163 6.87278 16.289 6.83549 16.37C6.7982 16.4509 6.77753 16.5386 6.7747 16.6277C6.77186 16.7168 6.78692 16.8055 6.81899 16.8887C7.00289 17.4087 7.34345 17.8589 7.79379 18.1773C8.24414 18.4957 8.78212 18.6667 9.33366 18.6667V19.3334H10.667V18.6667C11.3742 18.6667 12.0525 18.3857 12.5526 17.8856C13.0527 17.3855 13.3337 16.7073 13.3337 16C13.3337 15.2928 13.0527 14.6145 12.5526 14.1144C12.0525 13.6143 11.3742 13.3334 10.667 13.3334V10.6667C11.247 10.6667 11.741 11.0367 11.925 11.5554C11.9523 11.6402 11.9963 11.7187 12.0545 11.7863C12.1127 11.8538 12.1838 11.909 12.2637 11.9486C12.3436 11.9881 12.4306 12.0113 12.5195 12.0166C12.6085 12.022 12.6977 12.0095 12.7817 11.9798C12.8658 11.9501 12.943 11.9038 13.0089 11.8438C13.0747 11.7837 13.1279 11.711 13.1652 11.6301C13.2024 11.5491 13.2231 11.4615 13.226 11.3724C13.2288 11.2833 13.2137 11.1945 13.1817 11.1114ZM9.33366 10.6667C8.98004 10.6667 8.6409 10.8072 8.39085 11.0572C8.1408 11.3073 8.00033 11.6464 8.00033 12C8.00033 12.3536 8.1408 12.6928 8.39085 12.9428C8.6409 13.1929 8.98004 13.3334 9.33366 13.3334V10.6667ZM10.667 17.3334C11.0206 17.3334 11.3598 17.1929 11.6098 16.9428C11.8598 16.6928 12.0003 16.3536 12.0003 16C12.0003 15.6464 11.8598 15.3073 11.6098 15.0572C11.3598 14.8072 11.0206 14.6667 10.667 14.6667V17.3334Z" fill="black"/>
<path fill-rule="evenodd" clip-rule="evenodd" d="M20 14C20 19.5227 15.5227 24 10 24C4.47733 24 0 19.5227 0 14C0 8.47733 4.47733 4 10 4C15.5227 4 20 8.47733 20 14ZM18.6667 14C18.6667 18.7867 14.7867 22.6667 10 22.6667C5.21333 22.6667 1.33333 18.7867 1.33333 14C1.33333 9.21333 5.21333 5.33333 10 5.33333C14.7867 5.33333 18.6667 9.21333 18.6667 14Z" fill="black"/>
</svg>
