<svg width="7" height="13" viewBox="0 0 7 13" fill="none" xmlns="http://www.w3.org/2000/svg">
<mask id="path-1-inside-1_1343_92" fill="white">
<path d="M0.15582 0.15298C0.0559252 0.252994 0 0.387253 0 0.527059C0 0.666865 0.0559252 0.801125 0.15582 0.901138L5.7368 6.5L0.15582 12.0977C0.0559252 12.1978 0 12.332 0 12.4718C0 12.6116 0.0559252 12.7459 0.15582 12.8459C0.204376 12.8947 0.26243 12.9334 0.326556 12.9599C0.390682 12.9864 0.45958 13 0.529183 13C0.598787 13 0.667685 12.9864 0.731811 12.9599C0.795937 12.9334 0.853991 12.8947 0.902547 12.8459L6.83742 6.89088C6.94166 6.7863 7 6.64604 7 6.5C7 6.35396 6.94166 6.2137 6.83742 6.10912L0.902547 0.1541C0.853991 0.105332 0.795937 0.0665702 0.731811 0.0401031C0.667685 0.013636 0.598787 0 0.529183 0C0.45958 0 0.390682 0.013636 0.326556 0.0401031C0.26243 0.0665702 0.204376 0.105332 0.15582 0.1541V0.15298Z"/>
</mask>
<path d="M0.15582 0.15298C0.0559252 0.252994 0 0.387253 0 0.527059C0 0.666865 0.0559252 0.801125 0.15582 0.901138L5.7368 6.5L0.15582 12.0977C0.0559252 12.1978 0 12.332 0 12.4718C0 12.6116 0.0559252 12.7459 0.15582 12.8459C0.204376 12.8947 0.26243 12.9334 0.326556 12.9599C0.390682 12.9864 0.45958 13 0.529183 13C0.598787 13 0.667685 12.9864 0.731811 12.9599C0.795937 12.9334 0.853991 12.8947 0.902547 12.8459L6.83742 6.89088C6.94166 6.7863 7 6.64604 7 6.5C7 6.35396 6.94166 6.2137 6.83742 6.10912L0.902547 0.1541C0.853991 0.105332 0.795937 0.0665702 0.731811 0.0401031C0.667685 0.013636 0.598787 0 0.529183 0C0.45958 0 0.390682 0.013636 0.326556 0.0401031C0.26243 0.0665702 0.204376 0.105332 0.15582 0.1541V0.15298Z" fill="white"/>
<path d="M0.15582 0.15298H50.1558V-120.659L-35.2205 -35.1814L0.15582 0.15298ZM0 0.527059H-50H0ZM0.15582 0.901138L35.5676 -34.3976L35.5499 -34.4154L35.5321 -34.4332L0.15582 0.901138ZM5.7368 6.5L41.1451 41.8023L76.3382 6.50353L41.1486 -28.7988L5.7368 6.5ZM0.15582 12.0977L35.5321 47.4321L35.5481 47.4161L35.5641 47.4L0.15582 12.0977ZM0 12.4718H50H0ZM0.15582 12.8459L35.5884 -22.432L35.5603 -22.4603L35.5321 -22.4885L0.15582 12.8459ZM0.902547 12.8459L-34.5126 -22.4495L-34.5213 -22.4408L-34.53 -22.432L0.902547 12.8459ZM6.83742 6.89088L-28.5756 -28.4066L-28.5778 -28.4045L6.83742 6.89088ZM6.83742 6.10912L-28.5778 41.4045L-28.5756 41.4066L6.83742 6.10912ZM0.902547 0.1541L-34.53 35.432L-34.5213 35.4408L-34.5126 35.4495L0.902547 0.1541ZM0.15582 0.1541H-49.8442V121.239L35.5884 35.432L0.15582 0.1541ZM-35.2205 -35.1814C-44.5676 -25.8232 -50 -13.0276 -50 0.527059H50C50 13.8021 44.6795 26.3291 35.5321 35.4874L-35.2205 -35.1814ZM-50 0.527059C-50 14.0817 -44.5676 26.8773 -35.2205 36.2355L35.5321 -34.4332C44.6795 -25.275 50 -12.748 50 0.527059H-50ZM-35.256 36.1999L-29.675 41.7988L41.1486 -28.7988L35.5676 -34.3976L-35.256 36.1999ZM-29.6715 -28.8023L-35.2525 -23.2046L35.5641 47.4L41.1451 41.8023L-29.6715 -28.8023ZM-35.2205 -23.2366C-44.5676 -13.8784 -50 -1.08288 -50 12.4718H50C50 25.7469 44.6794 38.2739 35.5321 47.4321L-35.2205 -23.2366ZM-50 12.4718C-50 26.0264 -44.5677 38.822 -35.2205 48.1803L35.5321 -22.4885C44.6795 -13.3302 50 -0.803164 50 12.4718H-50ZM-35.2768 48.1238C-30.5159 52.9055 -24.8858 56.6452 -18.7493 59.178L19.4024 -33.2582C25.4107 -30.7784 30.9247 -27.1162 35.5884 -22.432L-35.2768 48.1238ZM-18.7493 59.178C-12.6144 61.7101 -6.06256 63 0.529183 63V-37C6.98172 -37 13.3958 -35.7374 19.4024 -33.2582L-18.7493 59.178ZM0.529183 63C7.12088 63 13.6727 61.7101 19.8077 59.178L-18.344 -33.2582C-12.3373 -35.7374 -5.9233 -37 0.529183 -37V63ZM19.8077 59.178C25.9442 56.6452 31.5743 52.9055 36.3351 48.1238L-34.53 -22.432C-29.8663 -27.1162 -24.3523 -30.7784 -18.344 -33.2582L19.8077 59.178ZM36.3177 48.1413L42.2526 42.1863L-28.5778 -28.4045L-34.5126 -22.4495L36.3177 48.1413ZM42.2505 42.1884C51.58 32.8283 57 20.0422 57 6.5H-43C-43 -6.75016 -37.6967 -19.2557 -28.5756 -28.4066L42.2505 42.1884ZM57 6.5C57 -7.04224 51.58 -19.8283 42.2505 -29.1884L-28.5756 41.4066C-37.6967 32.2557 -43 19.7502 -43 6.5H57ZM42.2526 -29.1863L36.3177 -35.1413L-34.5126 35.4495L-28.5778 41.4045L42.2526 -29.1863ZM36.3351 -35.1238C31.5743 -39.9055 25.9442 -43.6452 19.8077 -46.178L-18.344 46.2582C-24.3523 43.7784 -29.8663 40.1162 -34.53 35.432L36.3351 -35.1238ZM19.8077 -46.178C13.6731 -48.7099 7.12126 -50 0.529183 -50V50C-5.92369 50 -12.3377 48.7372 -18.344 46.2582L19.8077 -46.178ZM0.529183 -50C-6.06295 -50 -12.6148 -48.7099 -18.7493 -46.178L19.4024 46.2582C13.3961 48.7372 6.98211 50 0.529183 50V-50ZM-18.7493 -46.178C-24.8858 -43.6452 -30.5159 -39.9055 -35.2768 -35.1238L35.5884 35.432C30.9247 40.1162 25.4107 43.7784 19.4024 46.2582L-18.7493 -46.178ZM50.1558 0.1541V0.15298H-49.8442V0.1541H50.1558Z" fill="white" mask="url(#path-1-inside-1_1343_92)"/>
</svg>
