<svg width="24" height="18" viewBox="0 0 24 18" fill="none" xmlns="http://www.w3.org/2000/svg">
<path d="M22 0H2C0.895833 0 0 0.863839 0 1.92857V16.0714C0 17.1362 0.895833 18 2 18H22C23.1042 18 24 17.1362 24 16.0714V1.92857C24 0.863839 23.1042 0 22 0ZM22 16.0714H2V1.92857H22V16.0714ZM8.66667 9C10.1375 9 11.3333 7.84687 11.3333 6.42857C11.3333 5.01027 10.1375 3.85714 8.66667 3.85714C7.19583 3.85714 6 5.01027 6 6.42857C6 7.84687 7.19583 9 8.66667 9ZM4.93333 14.1429H12.4C12.9167 14.1429 13.3333 13.7973 13.3333 13.3714V12.6C13.3333 11.3223 12.0792 10.2857 10.5333 10.2857C10.0833 10.2857 9.75417 10.6071 8.66667 10.6071C7.54583 10.6071 7.275 10.2857 6.8 10.2857C5.25417 10.2857 4 11.3223 4 12.6V13.3714C4 13.7973 4.41667 14.1429 4.93333 14.1429ZM15 11.5714H19.6667C19.85 11.5714 20 11.4268 20 11.25V10.6071C20 10.4304 19.85 10.2857 19.6667 10.2857H15C14.8167 10.2857 14.6667 10.4304 14.6667 10.6071V11.25C14.6667 11.4268 14.8167 11.5714 15 11.5714ZM15 9H19.6667C19.85 9 20 8.85536 20 8.67857V8.03571C20 7.85893 19.85 7.71429 19.6667 7.71429H15C14.8167 7.71429 14.6667 7.85893 14.6667 8.03571V8.67857C14.6667 8.85536 14.8167 9 15 9ZM15 6.42857H19.6667C19.85 6.42857 20 6.28393 20 6.10714V5.46429C20 5.2875 19.85 5.14286 19.6667 5.14286H15C14.8167 5.14286 14.6667 5.2875 14.6667 5.46429V6.10714C14.6667 6.28393 14.8167 6.42857 15 6.42857Z" fill="black"/>
</svg>
